<?xml version="1.0"?>
<svg version="1.1" xmlns="http://www.w3.org/2000/svg" width="800px" height="300px" style=""><path fill="#ffffff" d="M52.01,186.05l0,5.95l-22.26,0l0-5.95l5.25-1.89l-1.68-5.11l-15.54,0l-1.75,5.04l5.46,1.96l0,5.95l-21.14,0l0-5.95l5.11-1.96l15.4-41.23l11.2-0.21l15.05,41.44z M31.01,171.56l-5.25-16.59l-5.53,16.59l10.78,0z M85.5757,192l-0.63-3.71c-0.98,0.98-4.55,4.41-10.57,4.41c-9.8,0-14.35-7.14-14.35-18.69c0-13.16,6.3-20.51,19.11-20.51c1.68,0,3.71,0.35,5.25,0.7l0-8.89l-5.6-1.4l0-5.6l16.1-0.56l0,46.76l5.6,1.4l0,5.6z M84.3857,180.31l0-17.36c-1.33-0.63-3.43-1.05-5.46-1.05c-5.95,0-8.05,4.55-8.05,11.55c0,7.07,1.96,10.85,6.72,10.85c4.48,0,6.79-3.99,6.79-3.99z M154.0714,161.2l-4.27-1.05l0-5.6l17.92-0.35l0,5.95l-3.71,0.84l-9.31,31.01l-10.71,0l-5.53-17.85l-1.26-5.46l-1.75,7.63l-5.11,15.68l-10.64,0l-9.52-30.87l-3.08-0.98l0-5.6l18.34-0.35l0,5.95l-4.41,0.84l4.62,19.67l7.42-25.27l9.24-1.54l7.63,26.81z M199.2571,192l-1.26-4.55s-5.39,5.25-11.34,5.25c-6.79,0-10.92-3.99-10.92-10.99c0-8.26,6.23-11.55,16.87-11.55l4.9,0l0-3.85c0-3.57-1.89-5.11-5.39-5.11c-3.57,0-6.16,1.05-6.16,1.05l-1.05,4.41l-6.3,0l-0.49-10.36s8.47-2.8,15.19-2.8c10.64,0,14.7,3.71,14.7,13.86l0,17.29l5.25,1.26l0,5.6z M197.5071,176.11l-3.99,0c-5.46,0-7.63,1.4-7.63,4.55c0,2.66,1.47,4.2,4.13,4.2c3.71,0,7.49-4.06,7.49-4.06l0-4.69z M226.6628,142.65c0-3.99,2.87-6.3,6.02-6.3c3.64,0,5.88,1.89,5.88,6.3c0,4.13-3.01,6.37-5.88,6.37c-3.78,0-6.02-2.24-6.02-6.37z M238.4228,184.65l4.9,1.75l0,5.6l-21,0l0-5.6l5.6-1.75l0-22.75l-5.6-1.75l0-5.6l16.1-0.35l0,30.45z M277.5885,183.04l2.52,5.32c-3.43,2.52-7.35,4.34-11.9,4.34c-8.05,0-10.36-5.6-10.36-13.65l0-16.1l-6.51,0l0-6.79l6.51-0.91l0-9.66l10.5-1.89l0,11.55l9.8,0l0,7.7l-9.8,0l0,15.4c0,4.48,0.77,6.3,3.71,6.3c1.89,0,4.62-1.12,5.53-1.61z"/><path fill="#d10f0f" d="M311.48,176.81l1.05,5.88s2.8,1.47,6.86,1.47c4.48,0,8.47-1.96,8.47-5.67c0-8.19-23.66-4.55-23.66-21.84c0-9.66,7.63-14.84,17.78-14.84c7.91,0,15.4,2.8,15.4,2.8l-0.35,12.74l-6.44,0l-1.75-5.95s-3.15-1.05-6.16-1.05c-4.97,0-7.42,2.17-7.42,4.97c0,8.12,23.59,4.9,23.59,21.35c0,10.5-8.12,16.24-18.9,16.24c-7.91,0-15.61-2.66-15.61-2.66l0-13.44l7.14,0z M373.5357,192l-1.26-4.55s-5.39,5.25-11.34,5.25c-6.79,0-10.92-3.99-10.92-10.99c0-8.26,6.23-11.55,16.87-11.55l4.9,0l0-3.85c0-3.57-1.89-5.11-5.39-5.11c-3.57,0-6.16,1.05-6.16,1.05l-1.05,4.41l-6.3,0l-0.49-10.36s8.47-2.8,15.19-2.8c10.64,0,14.7,3.71,14.7,13.86l0,17.29l5.25,1.26l0,5.6z M371.7857,176.11l-3.99,0c-5.46,0-7.63,1.4-7.63,4.55c0,2.66,1.47,4.2,4.13,4.2c3.71,0,7.49-4.06,7.49-4.06l0-4.69z M422.5014,192l-0.63-3.71c-0.98,0.98-4.55,4.41-10.57,4.41c-9.8,0-14.35-7.14-14.35-18.69c0-13.16,6.3-20.51,19.11-20.51c1.68,0,3.71,0.35,5.25,0.7l0-8.89l-5.6-1.4l0-5.6l16.1-0.56l0,46.76l5.6,1.4l0,5.6z M421.3114,180.31l0-17.36c-1.33-0.63-3.43-1.05-5.46-1.05c-5.95,0-8.05,4.55-8.05,11.55c0,7.07,1.96,10.85,6.72,10.85c4.48,0,6.79-3.99,6.79-3.99z M469.9971,192l-1.26-4.55s-5.39,5.25-11.34,5.25c-6.79,0-10.92-3.99-10.92-10.99c0-8.26,6.23-11.55,16.87-11.55l4.9,0l0-3.85c0-3.57-1.89-5.11-5.39-5.11c-3.57,0-6.16,1.05-6.16,1.05l-1.05,4.41l-6.3,0l-0.49-10.36s8.47-2.8,15.19-2.8c10.64,0,14.7,3.71,14.7,13.86l0,17.29l5.25,1.26l0,5.6z M468.2471,176.11l-3.99,0c-5.46,0-7.63,1.4-7.63,4.55c0,2.66,1.47,4.2,4.13,4.2c3.71,0,7.49-4.06,7.49-4.06l0-4.69z M508.1828,184.65l6.3,1.75l0,5.6l-22.47,0l0-5.6l5.6-1.75l0-39.34l-5.6-1.4l0-5.6l16.17-0.56l0,46.9z M546.0185,192l-1.26-4.55s-5.39,5.25-11.34,5.25c-6.79,0-10.92-3.99-10.92-10.99c0-8.26,6.23-11.55,16.87-11.55l4.9,0l0-3.85c0-3.57-1.89-5.11-5.39-5.11c-3.57,0-6.16,1.05-6.16,1.05l-1.05,4.41l-6.3,0l-0.49-10.36s8.47-2.8,15.19-2.8c10.64,0,14.7,3.71,14.7,13.86l0,17.29l5.25,1.26l0,5.6z M544.2685,176.11l-3.99,0c-5.46,0-7.63,1.4-7.63,4.55c0,2.66,1.47,4.2,4.13,4.2c3.71,0,7.49-4.06,7.49-4.06l0-4.69z M582.7342,185.7l10.36,0c8.89,0,14,3.85,14,10.85c0,7.7-6.16,13.3-19.6,13.3c-10.99,0-18.06-2.45-18.06-10.15c0-6.02,7.35-8.4,7.35-8.4s-4.2-0.63-4.2-4.62c0-2.03,2.8-6.58,3.64-7.91c-1.68-1.12-5.39-4.13-5.39-10.92c0-9.59,7.21-14.35,16.8-14.35c4.06,0,6.93,1.05,8.26,1.68l12.04-0.28l0,5.6l-5.74,0.98c0.14,0.63,1.19,2.52,1.19,5.53c0,10.15-7.14,14.35-16.8,14.35c-1.89,0-3.29-0.35-3.57-0.35z M587.2842,160.71c-4.2,0-5.95,2.24-5.95,6.65c0,4.2,1.61,7,5.6,7c4.41,0,5.95-2.31,5.95-7c0-4.41-1.75-6.65-5.6-6.65z M590.2942,193.4l-7.35,0s-3.36,1.54-3.36,4.55c0,3.5,3.01,4.2,8.75,4.2c6.3,0,8.96-1.4,8.96-4.76c0-3.15-2.31-3.99-7-3.99z M650.8099,175.41l-23.24,0c0.42,5.6,3.64,8.89,8.47,8.89c5.81,0,11.76-3.29,11.76-3.29l3.01,5.81s-7,5.88-15.96,5.88c-12.04,0-18.2-7-18.2-18.9c0-12.25,6.93-20.3,18.69-20.3c10.43,0,15.89,6.44,15.89,16.45c0,2.66-0.42,5.25-0.42,5.46z M627.7099,168.9l12.67,0c0-3.99-1.68-7-5.74-7c-3.92,0-6.37,2.87-6.93,7z"/></svg>
