<?xml version="1.0"?>
<svg version="1.1" xmlns="http://www.w3.org/2000/svg" width="500px" height="80px" style=""><path fill="#ffffff" d="M58.15,65.75l0,4.25l-15.9,0l0-4.25l3.75-1.35l-1.2-3.65l-11.1,0l-1.25,3.6l3.9,1.4l0,4.25l-15.1,0l0-4.25l3.65-1.4l11-29.45l8-0.15l10.75,29.6z M43.15,55.4l-3.75-11.85l-3.95,11.85l7.7,0z M82.1255,70l-0.45-2.65c-0.7,0.7-3.25,3.15-7.55,3.15c-7,0-10.25-5.1-10.25-13.35c0-9.4,4.5-14.65,13.65-14.65c1.2,0,2.65,0.25,3.75,0.5l0-6.35l-4-1l0-4l11.5-0.4l0,33.4l4,1l0,4z M81.2755,61.65l0-12.4c-0.95-0.45-2.45-0.75-3.9-0.75c-4.25,0-5.75,3.25-5.75,8.25c0,5.05,1.4,7.75,4.8,7.75c3.2,0,4.85-2.85,4.85-2.85z M131.051,48l-3.05-0.75l0-4l12.8-0.25l0,4.25l-2.65,0.6l-6.65,22.15l-7.65,0l-3.95-12.75l-0.9-3.9l-1.25,5.45l-3.65,11.2l-7.6,0l-6.8-22.05l-2.2-0.7l0-4l13.1-0.25l0,4.25l-3.15,0.6l3.3,14.05l5.3-18.05l6.6-1.1l5.45,19.15z M163.3265,70l-0.9-3.25s-3.85,3.75-8.1,3.75c-4.85,0-7.8-2.85-7.8-7.85c0-5.9,4.45-8.25,12.05-8.25l3.5,0l0-2.75c0-2.55-1.35-3.65-3.85-3.65c-2.55,0-4.4,0.75-4.4,0.75l-0.75,3.15l-4.5,0l-0.35-7.4s6.05-2,10.85-2c7.6,0,10.5,2.65,10.5,9.9l0,12.35l3.75,0.9l0,4z M162.0765,58.65l-2.85,0c-3.9,0-5.45,1-5.45,3.25c0,1.9,1.05,3,2.95,3c2.65,0,5.35-2.9,5.35-2.9l0-3.35z M182.902,34.75c0-2.85,2.05-4.5,4.3-4.5c2.6,0,4.2,1.35,4.2,4.5c0,2.95-2.15,4.55-4.2,4.55c-2.7,0-4.3-1.6-4.3-4.55z M191.302,64.75l3.5,1.25l0,4l-15,0l0-4l4-1.25l0-16.25l-4-1.25l0-4l11.5-0.25l0,21.75z M219.2775,63.6l1.8,3.8c-2.45,1.8-5.25,3.1-8.5,3.1c-5.75,0-7.4-4-7.4-9.75l0-11.5l-4.65,0l0-4.85l4.65-0.65l0-6.9l7.5-1.35l0,8.25l7,0l0,5.5l-7,0l0,11c0,3.2,0.55,4.5,2.65,4.5c1.35,0,3.3-0.8,3.95-1.15z"/><path fill="#f01111" d="M253.2,59.15l0.75,4.2s2,1.05,4.9,1.05c3.2,0,6.05-1.4,6.05-4.05c0-5.85-16.9-3.25-16.9-15.6c0-6.9,5.45-10.6,12.7-10.6c5.65,0,11,2,11,2l-0.25,9.1l-4.6,0l-1.25-4.25s-2.25-0.75-4.4-0.75c-3.55,0-5.3,1.55-5.3,3.55c0,5.8,16.85,3.5,16.85,15.25c0,7.5-5.8,11.6-13.5,11.6c-5.65,0-11.15-1.9-11.15-1.9l0-9.6l5.1,0z M297.5255,70l-0.9-3.25s-3.85,3.75-8.1,3.75c-4.85,0-7.8-2.85-7.8-7.85c0-5.9,4.45-8.25,12.05-8.25l3.5,0l0-2.75c0-2.55-1.35-3.65-3.85-3.65c-2.55,0-4.4,0.75-4.4,0.75l-0.75,3.15l-4.5,0l-0.35-7.4s6.05-2,10.85-2c7.6,0,10.5,2.65,10.5,9.9l0,12.35l3.75,0.9l0,4z M296.2755,58.65l-2.85,0c-3.9,0-5.45,1-5.45,3.25c0,1.9,1.05,3,2.95,3c2.65,0,5.35-2.9,5.35-2.9l0-3.35z M332.501,70l-0.45-2.65c-0.7,0.7-3.25,3.15-7.55,3.15c-7,0-10.25-5.1-10.25-13.35c0-9.4,4.5-14.65,13.65-14.65c1.2,0,2.65,0.25,3.75,0.5l0-6.35l-4-1l0-4l11.5-0.4l0,33.4l4,1l0,4z M331.651,61.65l0-12.4c-0.95-0.45-2.45-0.75-3.9-0.75c-4.25,0-5.75,3.25-5.75,8.25c0,5.05,1.4,7.75,4.8,7.75c3.2,0,4.85-2.85,4.85-2.85z M366.4265,70l-0.9-3.25s-3.85,3.75-8.1,3.75c-4.85,0-7.8-2.85-7.8-7.85c0-5.9,4.45-8.25,12.05-8.25l3.5,0l0-2.75c0-2.55-1.35-3.65-3.85-3.65c-2.55,0-4.4,0.75-4.4,0.75l-0.75,3.15l-4.5,0l-0.35-7.4s6.05-2,10.85-2c7.6,0,10.5,2.65,10.5,9.9l0,12.35l3.75,0.9l0,4z M365.1765,58.65l-2.85,0c-3.9,0-5.45,1-5.45,3.25c0,1.9,1.05,3,2.95,3c2.65,0,5.35-2.9,5.35-2.9l0-3.35z M393.702,64.75l4.5,1.25l0,4l-16.05,0l0-4l4-1.25l0-28.1l-4-1l0-4l11.55-0.4l0,33.5z M420.7275,70l-0.9-3.25s-3.85,3.75-8.1,3.75c-4.85,0-7.8-2.85-7.8-7.85c0-5.9,4.45-8.25,12.05-8.25l3.5,0l0-2.75c0-2.55-1.35-3.65-3.85-3.65c-2.55,0-4.4,0.75-4.4,0.75l-0.75,3.15l-4.5,0l-0.35-7.4s6.05-2,10.85-2c7.6,0,10.5,2.65,10.5,9.9l0,12.35l3.75,0.9l0,4z M419.4775,58.65l-2.85,0c-3.9,0-5.45,1-5.45,3.25c0,1.9,1.05,3,2.95,3c2.65,0,5.35-2.9,5.35-2.9l0-3.35z M446.953,65.5l7.4,0c6.35,0,10,2.75,10,7.75c0,5.5-4.4,9.5-14,9.5c-7.85,0-12.9-1.75-12.9-7.25c0-4.3,5.25-6,5.25-6s-3-0.45-3-3.3c0-1.45,2-4.7,2.6-5.65c-1.2-0.8-3.85-2.95-3.85-7.8c0-6.85,5.15-10.25,12-10.25c2.9,0,4.95,0.75,5.9,1.2l8.6-0.2l0,4l-4.1,0.7c0.1,0.45,0.85,1.8,0.85,3.95c0,7.25-5.1,10.25-12,10.25c-1.35,0-2.35-0.25-2.55-0.25z M450.203,47.65c-3,0-4.25,1.6-4.25,4.75c0,3,1.15,5,4,5c3.15,0,4.25-1.65,4.25-5c0-3.15-1.25-4.75-4-4.75z M452.353,71l-5.25,0s-2.4,1.1-2.4,3.25c0,2.5,2.15,3,6.25,3c4.5,0,6.4-1,6.4-3.4c0-2.25-1.65-2.85-5-2.85z M495.5785,58.15l-16.6,0c0.3,4,2.6,6.35,6.05,6.35c4.15,0,8.4-2.35,8.4-2.35l2.15,4.15s-5,4.2-11.4,4.2c-8.6,0-13-5-13-13.5c0-8.75,4.95-14.5,13.35-14.5c7.45,0,11.35,4.6,11.35,11.75c0,1.9-0.3,3.75-0.3,3.9z M479.0785,53.5l9.05,0c0-2.85-1.2-5-4.1-5c-2.8,0-4.55,2.05-4.95,5z"/></svg>
